<svg width="23" height="17" viewBox="0 0 23 17" fill="none" xmlns="http://www.w3.org/2000/svg">
<path d="M22.8912 3.88324C22.7801 3.76185 22.6281 3.68586 22.4644 3.66978L5.09585 3.42966L4.61562 1.96226C4.2773 0.981318 3.35871 0.319085 2.32114 0.308105H0.533597C0.23889 0.308105 0 0.546996 0 0.841702C0 1.13641 0.23889 1.3753 0.533597 1.3753H2.32114C2.90131 1.38812 3.41218 1.76065 3.60179 2.3091L6.99012 12.5275L6.72335 13.1411C6.42578 13.9084 6.51515 14.772 6.96346 15.4622C7.40749 16.1401 8.15449 16.5584 8.96446 16.5828H19.3429C19.6376 16.5828 19.8765 16.3439 19.8765 16.0492C19.8765 15.7545 19.6376 15.5156 19.3429 15.5156H8.96441C8.50701 15.5041 8.08596 15.2635 7.84385 14.8753C7.60445 14.4917 7.55528 14.0193 7.71047 13.5946L7.92393 13.1144L19.1561 11.9404C20.3899 11.8046 21.4048 10.9072 21.6907 9.69933L22.9714 4.33671C23.0291 4.18228 22.9984 4.00861 22.8912 3.88324ZM20.6502 9.45927C20.477 10.2368 19.8168 10.8103 19.0227 10.8733L7.92393 12.0205L5.4427 4.49685L21.7974 4.73697L20.6502 9.45927Z" fill="black"/>
</svg>
