<svg width="478" height="347" viewBox="0 0 478 347" fill="none" xmlns="http://www.w3.org/2000/svg">
<path d="M418.213 346.785C418.213 346.785 474.236 342.255 477.905 289.367C481.573 236.478 378.033 171.111 361.22 144.901C344.407 118.691 317.774 40.1773 242.043 37.6169C166.311 35.0566 114.913 37.7943 93.2549 99.3807C71.597 160.972 45.9178 197.469 21.1549 221.087C-3.608 244.702 -17.3655 326.689 42.2493 347L418.213 346.785Z" fill="#F4F2FF"/>
<path d="M261.142 27.4243H323.217V56.1404V58.5237V72.8134L305.453 58.5237H261.142V27.4243Z" fill="#AFEBF1"/>
<path d="M323.612 73.6368L305.313 58.9184H260.747V27.0298H323.612V73.6368ZM261.536 58.1292H305.589L305.697 58.216L322.82 71.99V27.8216H261.536V58.1292Z" fill="#1B2746"/>
<path d="M314.942 35.2662H270.794C270.576 35.2662 270.399 35.09 270.399 34.8716C270.399 34.6533 270.576 34.4771 270.794 34.4771H314.942C315.16 34.4771 315.336 34.6533 315.336 34.8716C315.336 35.09 315.16 35.2662 314.942 35.2662Z" fill="#0E2549"/>
<path d="M314.942 42.1637H285.947C285.729 42.1637 285.553 41.9875 285.553 41.7691C285.553 41.5508 285.729 41.3745 285.947 41.3745H314.942C315.16 41.3745 315.336 41.5508 315.336 41.7691C315.336 41.9875 315.16 42.1637 314.942 42.1637Z" fill="#0E2549"/>
<path d="M219.16 0.394531H163.343V26.7614V28.9475V42.0691L179.317 28.9475H219.16V0.394531Z" fill="#AFEBF1"/>
<path d="M162.948 42.9031V0H219.552V29.3422H179.458L162.948 42.9031ZM163.737 0.789192V41.2353L179.174 28.5556H218.763V0.789192H163.737Z" fill="#1B2746"/>
<path d="M210.481 7.62611H171.536C171.318 7.62611 171.142 7.44985 171.142 7.23151C171.142 7.01317 171.318 6.83691 171.536 6.83691H210.481C210.699 6.83691 210.875 7.01317 210.875 7.23151C210.875 7.44985 210.699 7.62611 210.481 7.62611Z" fill="#0E2549"/>
<path d="M210.481 13.9606H171.536C171.318 13.9606 171.142 13.7843 171.142 13.566C171.142 13.3476 171.318 13.1714 171.536 13.1714H210.481C210.699 13.1714 210.875 13.3476 210.875 13.566C210.875 13.7843 210.699 13.9606 210.481 13.9606Z" fill="#0E2549"/>
<path d="M189.495 20.2951H171.536C171.318 20.2951 171.142 20.1188 171.142 19.9005C171.142 19.6821 171.318 19.5059 171.536 19.5059H189.495C189.713 19.5059 189.889 19.6821 189.889 19.9005C189.889 20.1162 189.713 20.2951 189.495 20.2951Z" fill="#0E2549"/>
<path d="M124.036 221.697L344.721 221.271C345.939 221.271 346.932 219.85 346.932 218.114V217.746C346.932 216.009 345.936 214.589 344.721 214.589L124.036 215.015C122.818 215.015 121.824 216.436 121.824 218.172V218.54C121.824 220.276 122.818 221.697 124.036 221.697Z" fill="#EBF4FE"/>
<path d="M124.038 222.092C122.6 222.092 121.43 220.497 121.43 218.54V218.172C121.43 216.212 122.6 214.62 124.035 214.62L344.721 214.194C346.159 214.194 347.329 215.789 347.329 217.746V218.114C347.329 220.071 346.159 221.665 344.724 221.665L124.038 222.092ZM344.721 214.984L124.035 215.41C123.049 215.41 122.216 216.675 122.216 218.172V218.54C122.216 220.037 123.049 221.302 124.033 221.302L344.718 220.876C345.704 220.876 346.538 219.611 346.538 218.114V217.746C346.541 216.249 345.707 214.984 344.721 214.984Z" fill="#0E2549"/>
<path d="M354.518 346.605H361.197L330.403 221.321H323.725L354.518 346.605Z" fill="#EBF4FE"/>
<path d="M361.673 346.976H354.229L354.16 346.694L323.254 220.952H330.698L330.766 221.234L361.673 346.976ZM354.81 346.234H360.726L330.114 221.694H324.198L354.81 346.234Z" fill="#0E2549"/>
<path d="M124.863 346.605H118.182L136.601 221.697H143.282L124.863 346.605Z" fill="#EBF4FE"/>
<path d="M125.203 347H117.725L136.259 221.302H143.738L125.203 347ZM118.64 346.21H124.522L142.825 222.091H136.943L118.64 346.21Z" fill="#0E2549"/>
<path d="M202.221 208.352H226.648L221.439 183.629H197.015L202.221 208.352Z" fill="#F9E5EF"/>
<path d="M227.132 208.747H201.9L196.528 183.238H221.763L227.132 208.747ZM202.539 207.958H226.159L221.121 184.024H197.501L202.539 207.958Z" fill="#1B2746"/>
<path d="M213.591 165.783L213.628 166.765L217.254 166.631L217.214 165.644L213.591 165.783Z" fill="white"/>
<path d="M152.796 189.501H269.495C273.437 189.501 276.631 186.305 276.631 182.362L258.041 101.475C257.487 97.1318 254.847 94.3354 250.905 94.3354H134.206C130.264 94.3354 127.069 97.5317 127.069 101.475L145.659 182.362C146.588 186.326 148.854 189.501 152.796 189.501Z" fill="#634CFF"/>
<path d="M269.498 189.896H152.796C149.125 189.896 146.382 187.184 145.275 182.451L126.675 101.52V101.475C126.675 97.3213 130.054 93.9409 134.206 93.9409H250.905C254.952 93.9409 257.833 96.8004 258.43 101.407L277.026 182.32V182.365C277.028 186.518 273.65 189.896 269.498 189.896ZM127.464 101.43L146.043 182.273C146.64 184.824 148.312 189.107 152.796 189.107H269.498C273.2 189.107 276.216 186.105 276.24 182.407L257.655 101.543L257.652 101.525C257.108 97.2713 254.586 94.7301 250.908 94.7301H134.206C130.503 94.7301 127.487 97.7317 127.464 101.43Z" fill="#0E2549"/>
<path d="M152.446 177.29H268.737L250.147 100.78H133.855L152.446 177.29Z" fill="#F9E5EF"/>
<path d="M269.24 177.684H152.136L133.354 100.386H250.458L250.532 100.688L269.24 177.684ZM152.756 176.895H268.238L249.84 101.175H134.358L152.756 176.895Z" fill="#1B2746"/>
<path d="M230.824 171.632L229.688 171.637L222.076 171.666L221.429 171.668L196.205 171.766L185.093 171.808L184.323 171.81L183.066 171.816H183.003L179.663 171.829H179.661L178.788 171.831L178.309 171.834L172.314 171.858H172.162L170.421 171.863L167.3 171.876H166.853L166.798 171.879L161.647 171.897L158.186 171.91L141.481 106.436L214.12 106.16L229.588 166.791L230.44 170.127L230.824 171.632Z" fill="#AFEBF1"/>
<path d="M239.688 208.255H189.227V214.798H239.688V208.255Z" fill="#AFEBF1"/>
<path d="M240.082 215.19H188.832V207.858H240.082V215.19ZM189.621 214.4H239.293V208.647H189.621V214.4Z" fill="#1B2746"/>
<path d="M199.329 83.1553H182.172V89.6977H199.329V83.1553Z" fill="#AFEBF1"/>
<path d="M199.726 90.0894H181.78V82.7578H199.726V90.0894ZM182.566 89.3002H198.935V83.547H182.566V89.3002Z" fill="#1B2746"/>
<path d="M207.729 183.532C207.729 185.113 209.01 186.394 210.59 186.394C212.171 186.394 213.451 185.113 213.451 183.532C213.451 181.951 212.171 180.67 210.59 180.67C209.013 180.67 207.729 181.951 207.729 183.532Z" fill="#0E2549"/>
<path d="M214.5 106.063L214.424 105.766L140.974 106.044L157.805 172.008L157.881 172.305L221.432 172.063L231.331 172.024L214.5 106.063ZM141.986 106.828L177.428 106.694L194.057 171.379L158.488 171.516L141.986 106.828ZM194.872 171.374L178.243 106.689L213.812 106.555L230.316 171.237L194.872 171.374Z" fill="#1B2746"/>
<path d="M222.507 138.641H149.798V139.43H222.507V138.641Z" fill="#1B2746"/>
<path d="M187.901 89.6948L188.83 94.3353H194.601L193.747 89.6948H187.901Z" fill="#F9E5EF"/>
<path d="M195.074 94.7299H188.506L187.42 89.3003H194.075L195.074 94.7299ZM189.153 93.9408H194.128L193.418 90.0895H188.38L189.153 93.9408Z" fill="#1B2746"/>
<path d="M190.722 88.4926C191.769 88.4926 192.618 87.6434 192.618 86.5959C192.618 85.5484 191.769 84.6992 190.722 84.6992C189.675 84.6992 188.826 85.5484 188.826 86.5959C188.826 87.6434 189.675 88.4926 190.722 88.4926Z" fill="#0E2549"/>
<path d="M245.919 109.196H223.398C223.18 109.196 223.004 109.02 223.004 108.801C223.004 108.583 223.18 108.407 223.398 108.407H245.919C246.138 108.407 246.314 108.583 246.314 108.801C246.314 109.02 246.135 109.196 245.919 109.196Z" fill="#1B2746"/>
<path d="M240.163 113.963H229.151C228.933 113.963 228.757 113.786 228.757 113.568C228.757 113.35 228.933 113.173 229.151 113.173H240.163C240.382 113.173 240.558 113.35 240.558 113.568C240.558 113.784 240.382 113.963 240.163 113.963Z" fill="#1B2746"/>
<path d="M246.569 169.518C241.98 169.518 238.249 165.783 238.249 161.195C238.249 156.605 241.983 152.869 246.569 152.869C251.157 152.869 254.891 156.605 254.891 161.195C254.888 165.783 251.157 169.518 246.569 169.518ZM246.569 153.658C242.417 153.658 239.038 157.039 239.038 161.195C239.038 165.349 242.417 168.729 246.569 168.729C250.723 168.729 254.102 165.349 254.102 161.195C254.099 157.039 250.72 153.658 246.569 153.658Z" fill="#1B2746"/>
<path d="M246.669 158.731C244.902 158.773 242.775 159.281 241.744 159.92C240.44 160.727 240.461 161.993 240.527 162.963C240.561 163.461 241.016 163.774 241.494 163.624L243.485 163.09C243.887 162.966 244.155 162.553 244.105 162.143L243.869 161.019C243.861 160.94 243.927 160.864 244.011 160.869C244.526 160.901 248.773 160.88 249.293 160.809C249.375 160.796 249.441 160.872 249.417 160.956L249.188 162.051C249.067 162.519 249.346 162.963 249.801 163.013L251.634 163.476C252.081 163.526 252.509 163.179 252.578 162.716C252.904 160.459 251.836 159.604 250.974 159.315C250.408 159.125 248.176 158.694 246.669 158.731Z" fill="#8A9DF8"/>
<path d="M157.266 199.192C156.858 198.474 156.269 198.045 155.512 197.919C154.255 197.706 152.772 198.406 151.662 199.105V195.991H128.523V203.017C128.523 209.41 133.703 214.592 140.093 214.592C143.913 214.592 147.303 212.737 149.409 209.88C149.562 209.891 149.717 209.896 149.867 209.896C152.488 209.896 154.841 208.518 156.385 206.058C157.863 203.704 158.223 200.884 157.266 199.192ZM155.717 205.637C154.337 207.836 152.249 209.081 149.932 209.104C151.029 207.337 151.662 205.251 151.662 203.017V200.052C152.688 199.347 154.21 198.503 155.383 198.7C155.901 198.787 156.293 199.076 156.579 199.584C157.387 201.007 157.026 203.554 155.717 205.637Z" fill="#634CFF"/>
<path d="M135.778 211.688C135.691 211.688 135.604 211.667 135.526 211.622C130.206 208.686 130.843 199.758 130.874 199.379C130.898 199.09 131.148 198.869 131.439 198.895C131.729 198.919 131.944 199.171 131.923 199.461C131.915 199.548 131.311 208.092 136.036 210.702C136.291 210.841 136.383 211.162 136.241 211.417C136.141 211.591 135.962 211.688 135.778 211.688Z" fill="white"/>
<path d="M145.841 194.141C145.741 194.141 145.641 194.104 145.563 194.028C143.425 191.905 142.689 191.039 142.728 188.414C142.765 185.986 143.901 184.942 144.997 183.931C145.752 183.237 146.464 182.582 146.822 181.461C147.645 178.873 144.106 176.203 144.072 176.176C143.898 176.047 143.861 175.8 143.99 175.624C144.119 175.45 144.366 175.413 144.542 175.542C144.708 175.666 148.571 178.573 147.577 181.701C147.156 183.021 146.333 183.779 145.534 184.513C144.513 185.449 143.551 186.336 143.52 188.427C143.483 190.745 144.072 191.434 146.12 193.468C146.275 193.62 146.275 193.87 146.123 194.025C146.044 194.101 145.944 194.141 145.841 194.141Z" fill="#0E2549"/>
<path d="M135.56 194.141C135.46 194.141 135.36 194.104 135.281 194.028C133.144 191.905 132.407 191.039 132.447 188.414C132.484 185.986 133.62 184.942 134.716 183.931C135.471 183.237 136.183 182.582 136.541 181.461C137.364 178.873 133.825 176.203 133.79 176.176C133.617 176.047 133.58 175.8 133.709 175.624C133.838 175.45 134.085 175.413 134.261 175.542C134.427 175.666 138.289 178.573 137.295 181.701C136.875 183.021 136.052 183.779 135.252 184.513C134.232 185.449 133.27 186.336 133.238 188.427C133.201 190.745 133.79 191.434 135.839 193.468C135.994 193.62 135.994 193.87 135.841 194.025C135.763 194.101 135.663 194.141 135.56 194.141Z" fill="#0E2549"/>
<path d="M141.055 192.055C140.955 192.055 140.855 192.016 140.776 191.939C138.639 189.817 137.902 188.951 137.942 186.326C137.979 183.898 139.115 182.853 140.211 181.843C140.966 181.149 141.678 180.494 142.036 179.373C142.859 176.784 139.32 174.114 139.286 174.088C139.112 173.959 139.075 173.712 139.204 173.535C139.333 173.362 139.58 173.325 139.756 173.454C139.922 173.578 143.785 176.484 142.791 179.612C142.37 180.933 141.547 181.69 140.748 182.424C139.727 183.361 138.765 184.247 138.733 186.339C138.697 188.656 139.286 189.346 141.334 191.379C141.489 191.532 141.489 191.782 141.337 191.937C141.258 192.018 141.158 192.055 141.055 192.055Z" fill="#0E2549"/>
<path d="M208.406 142.276C207.309 142.32 204.64 142.399 204.514 144.346C204.372 146.566 204.564 149.447 204.69 150.965C204.74 151.565 205.221 152.035 205.821 152.075L212.536 152.506C213.152 152.546 213.699 152.117 213.809 151.509C214.177 149.465 214.748 145.088 214.545 144.414C213.859 142.126 210.144 142.202 208.406 142.276Z" fill="#0E2549"/>
<path d="M205.916 152.624C205.916 152.624 205.774 157.838 205.274 158.401C204.775 158.964 202.279 160.161 202.279 160.161L210.154 165.869L215.429 162.405C215.429 162.405 212.842 159.785 212.637 159.082C212.353 158.112 212.739 153.063 212.739 153.063L205.916 152.624Z" fill="white"/>
<path d="M210.144 166.346L201.512 160.09L202.109 159.803C203.045 159.353 204.654 158.506 204.98 158.138C205.23 157.772 205.458 154.984 205.522 152.611C205.527 152.393 205.706 152.216 205.927 152.227C206.145 152.232 206.316 152.414 206.31 152.632C206.266 154.242 206.108 158.054 205.569 158.659C205.177 159.101 203.839 159.816 203.039 160.219L210.165 165.383L214.811 162.331C213.986 161.479 212.442 159.822 212.258 159.185C211.964 158.172 212.308 153.55 212.348 153.027C212.363 152.808 212.553 152.648 212.771 152.664C212.989 152.679 213.15 152.869 213.134 153.087C212.987 155.01 212.824 158.306 213.015 158.964C213.126 159.338 214.498 160.895 215.711 162.121L216.05 162.463L210.144 166.346Z" fill="#0E2549"/>
<path d="M208.506 154.547C210.396 154.892 212.797 154.684 213.502 154.066C213.914 153.703 214.167 152.182 214.325 150.438C214.33 150.388 214.574 144.182 214.574 144.182L206.055 143.635C206.055 143.635 205.95 145.516 205.897 147.629C205.895 147.723 205.789 147.779 205.711 147.726C205.277 147.437 204.669 147.184 204.601 147.971C204.514 148.952 205.356 149.62 205.792 149.859C205.837 149.886 205.866 149.933 205.866 149.983C205.868 151.475 205.929 152.769 206.105 153.237C206.2 153.492 206.402 153.711 206.678 153.897L208.506 154.547Z" fill="white"/>
<path d="M210.454 155.108C209.762 155.108 209.06 155.05 208.437 154.937C208.221 154.898 208.079 154.692 208.119 154.479C208.158 154.264 208.363 154.124 208.576 154.161C210.514 154.513 212.712 154.235 213.241 153.772C213.312 153.708 213.675 153.256 213.93 150.404C213.935 150.299 214.077 146.729 214.164 144.554L206.428 144.057C206.394 144.72 206.331 146.127 206.291 147.64C206.286 147.826 206.181 147.997 206.015 148.084C205.85 148.171 205.65 148.16 205.492 148.055C205.24 147.887 205.087 147.845 205.029 147.84C205.019 147.863 205.003 147.913 204.995 148.005C204.916 148.9 205.873 149.455 205.984 149.515C206.155 149.61 206.26 149.789 206.262 149.983C206.268 152.214 206.399 152.893 206.475 153.101C206.539 153.267 206.681 153.424 206.899 153.572C207.08 153.693 207.128 153.937 207.007 154.119C206.886 154.3 206.641 154.348 206.46 154.227C206.102 153.985 205.86 153.701 205.739 153.377C205.631 153.088 205.487 152.435 205.476 150.128C204.814 149.715 204.125 148.926 204.212 147.934C204.256 147.427 204.49 147.213 204.68 147.121C204.916 147.008 205.192 147.021 205.518 147.163C205.574 145.256 205.663 143.63 205.666 143.612L205.687 143.215L214.987 143.815L214.969 144.196C214.805 148.318 214.719 150.431 214.716 150.47C214.453 153.406 214.067 154.09 213.762 154.361C213.183 154.871 211.839 155.108 210.454 155.108Z" fill="#0E2549"/>
<path d="M205.86 149.828C205.86 149.828 206.097 150.096 206.594 150.648C207.167 151.288 212.841 151.322 213.252 151.148C214.156 150.762 213.98 149.98 214.303 150.067C214.706 150.175 213.998 154.152 213.538 154.689C213.081 155.226 208.963 155.157 206.786 154.565C204.979 154.071 205.86 149.828 205.86 149.828Z" fill="#0E2549"/>
<path d="M206.016 144.075C206.016 144.075 212.258 146.321 215.276 144.269C218.298 142.218 213.733 141.831 210.967 141.933C208.201 142.036 204.309 142.346 206.016 144.075Z" fill="#0E2549"/>
<path d="M196.073 171.7C197.722 167.109 200.549 160.772 203.714 159.841C203.825 159.809 206.331 160.396 208.142 160.735C208.555 160.34 209.157 160.296 209.98 160.688C209.986 160.688 209.988 160.69 209.993 160.693C210.078 160.735 213.475 160.022 213.588 160.009C214.932 159.841 223.243 169.421 224.326 171.65C224.326 171.665 196.073 171.7 196.073 171.7Z" fill="white"/>
<path d="M195.511 172.094L195.7 171.565C197.491 166.574 200.317 160.427 203.602 159.461C203.743 159.422 203.759 159.416 205.492 159.787C206.265 159.953 207.212 160.156 208.032 160.314C208.432 160.024 209.076 159.848 210.065 160.295C210.449 160.242 211.974 159.932 212.736 159.78C213.401 159.645 213.499 159.627 213.543 159.622C215.318 159.388 223.751 169.568 224.682 171.483L224.721 171.565V171.657C224.721 172.051 224.392 172.051 224.011 172.054L223.114 172.057C222.341 172.059 221.237 172.062 219.914 172.065C217.267 172.07 213.733 172.075 210.201 172.08C203.139 172.091 196.073 172.099 196.073 172.099L195.511 172.094ZM203.759 160.24C201.524 160.953 199.005 164.867 196.636 171.304C200.225 171.299 219.791 171.275 223.654 171.265C221.747 168.224 214.664 160.477 213.622 160.406C213.585 160.413 213.291 160.474 212.894 160.553C210.559 161.026 210.099 161.111 209.923 161.084H209.894L209.812 161.045C208.866 160.592 208.526 160.916 208.416 161.021L208.269 161.161L208.069 161.124C207.201 160.961 206.163 160.74 205.329 160.561C204.659 160.419 203.97 160.269 203.759 160.24Z" fill="#0E2549"/>
<path d="M213.075 171.249L209.951 171.255L209.654 163.368L208.192 161.721L210.112 160.574L212.044 161.721L211.035 163.205L213.075 171.249Z" fill="#8A9DF8"/>
<path d="M210.109 160.44L206.891 162.589L202.421 159.987L204.561 158.854L210.109 160.44Z" fill="white"/>
<path d="M210.109 160.44L212.605 162.287L215.429 160.737L214.027 159.464L210.109 160.44Z" fill="white"/>
<path d="M216.102 160.819L214.135 159.03L210.114 160.032L204.514 158.43L201.605 159.969L206.901 163.052L210.096 160.921L212.573 162.752L216.102 160.819ZM206.875 162.124L203.233 160.003L204.606 159.277L209.183 160.587L206.875 162.124ZM213.916 159.898L214.753 160.658L212.636 161.818L211.016 160.619L213.916 159.898Z" fill="#0E2549"/>
<path d="M169.595 90.0757C169.595 90.0757 168.993 95.3001 169.43 95.871C169.866 96.4418 172.417 97.4678 172.417 97.4678L167.897 106.586L159.735 106.593L158.302 99.888C158.302 99.888 162.538 96.6181 162.801 95.9552C163.164 95.0397 163.232 90.1678 163.232 90.1678L169.595 90.0757Z" fill="white"/>
<path d="M159.407 106.998L157.853 99.722L158.055 99.5668C160.053 98.0252 162.236 96.1943 162.428 95.8023C162.67 95.1894 162.801 92.0168 162.827 90.1649C162.83 89.9413 163.014 89.7598 163.238 89.765C163.461 89.7677 163.64 89.9518 163.637 90.1754C163.629 90.6805 163.556 95.1473 163.177 96.1049C162.917 96.7625 160.14 98.9749 158.752 100.051L160.061 106.185L167.642 106.178L171.86 97.6754C171.058 97.336 169.498 96.6284 169.107 96.118C168.641 95.5077 168.959 92.0405 169.191 90.0281C169.217 89.8045 169.417 89.6466 169.64 89.6703C169.864 89.6966 170.022 89.8966 169.998 90.1202C169.73 92.4588 169.564 95.2341 169.764 95.6419C169.979 95.9207 171.391 96.6152 172.569 97.0887L172.977 97.2518L168.149 106.988L159.407 106.998Z" fill="#0E2549"/>
<path d="M168.079 79.7796C169.225 79.8901 172.015 80.1269 171.965 82.0604C171.907 84.2648 171.434 87.1007 171.158 88.5922C171.05 89.1815 170.501 89.6182 169.867 89.6208L162.783 89.6445C162.134 89.6471 161.6 89.1894 161.542 88.5844C161.347 86.543 160.979 82.2182 161.253 81.5632C162.192 79.3429 166.265 79.6034 168.079 79.7796Z" fill="#0E2549"/>
<path d="M163.293 91.0829C162.92 90.7094 162.807 89.2336 162.809 87.55C162.809 87.5 162.783 87.4579 162.741 87.4342C162.283 87.1764 161.708 86.6871 161.747 85.8506C161.784 85.1272 162.255 85.2113 162.686 85.4428C162.762 85.4849 162.859 85.4297 162.862 85.3429C162.951 83.3094 163.117 81.5285 163.117 81.5285L171.536 81.4995C171.536 81.4995 171.471 83.312 171.337 85.3429C171.331 85.435 170.847 90.2832 170.634 90.7225C170.519 90.9619 170.301 91.1619 170.014 91.3223C170.014 91.3223 169.462 91.738 166.404 91.7485L163.293 91.0829Z" fill="white"/>
<path d="M166.4 92.1565C166.177 92.1565 165.993 91.9749 165.993 91.7513C165.993 91.5251 166.174 91.3436 166.398 91.3436C169.022 91.3357 169.703 91.0279 169.782 90.9858L169.811 90.9674C170.037 90.8385 170.189 90.6965 170.266 90.5439C170.437 90.1098 170.886 85.8324 170.928 85.3142C171.023 83.891 171.083 82.5625 171.11 81.9075L163.487 81.9338C163.434 82.5572 163.329 83.9015 163.266 85.3589C163.258 85.5404 163.158 85.7035 163.001 85.7929C162.84 85.8824 162.651 85.885 162.49 85.8008C162.32 85.7088 162.222 85.6877 162.18 85.6851C162.17 85.714 162.154 85.7693 162.149 85.8692C162.125 86.3638 162.388 86.7689 162.935 87.0793C163.106 87.1767 163.211 87.3555 163.211 87.5502C163.208 90.3466 163.54 90.757 163.576 90.7964C163.734 90.9543 163.737 91.2121 163.576 91.3725C163.419 91.5304 163.161 91.533 163.001 91.3725C162.722 91.0963 162.406 90.4255 162.396 87.7054C161.673 87.2477 161.297 86.5848 161.334 85.8271C161.355 85.4062 161.502 85.1169 161.767 84.9669C161.965 84.8564 162.199 84.838 162.469 84.9143C162.561 83.0676 162.706 81.505 162.706 81.4892L162.74 81.1209L171.951 81.0894L171.935 81.5129C171.935 81.5313 171.87 83.3543 171.736 85.3694C171.733 85.4168 171.26 90.3518 170.991 90.899C170.844 91.2015 170.584 91.4593 170.218 91.6672C170.013 91.8066 169.203 92.1459 166.4 92.1565C166.403 92.1565 166.403 92.1565 166.4 92.1565Z" fill="#0E2549"/>
<path d="M175.036 98.8013C174.021 98.1199 173.122 97.607 172.388 97.265L172.498 97.2176L170.658 95.3104L166.543 97.2124L161.126 95.0815L159.08 96.7152C156.793 98.0673 152.478 102.95 149.925 109.034H181.352C180.247 106.059 177.96 100.764 175.036 98.8013Z" fill="#8A9DF8"/>
<path d="M167.145 98.5433L168.01 99.5771L173.18 97.3542L170.747 94.8341L166.53 96.7834L161.058 94.6289L157.734 97.2832L164.971 99.756L166.288 98.1461C166.561 99.9375 167.206 104.268 167.834 109.082C167.86 109.282 168.029 109.426 168.226 109.426C168.242 109.426 168.26 109.426 168.278 109.424C168.494 109.395 168.647 109.197 168.618 108.982C168.039 104.573 167.45 100.569 167.145 98.5433ZM171.818 97.0807L168.236 98.6196L167.174 97.3542L170.566 95.7864L171.818 97.0807ZM164.705 98.8353L159.349 97.0044L161.192 95.5338L165.894 97.3832L164.705 98.8353Z" fill="#0E2549"/>
<path d="M170.04 82.4284C171.044 82.3416 172.937 81.8944 172.709 79.8504C172.482 77.809 172.106 78.5614 172.106 78.5614C172.106 78.5614 171.701 79.0296 171.544 79.0533C171.386 79.077 171.712 79.1822 171.157 77.4986C171.157 77.4986 169.661 77.2539 169.035 78.2404C168.409 79.2269 167.939 78.7034 167.689 78.2246C167.476 77.8169 166.858 78.3746 166.745 78.7981C166.521 79.2795 164.231 79.1033 163.561 79.4768C162.498 80.0661 162.133 80.3134 162.186 81.7786C162.196 82.0601 162.667 84.7881 162.667 84.7881L163.482 81.8838C163.482 81.8838 168.399 82.5704 170.04 82.4284Z" fill="#0E2549"/>
<path d="M201.583 78.7872C201.583 78.7872 204.991 78.6741 206.734 81.6388C207.194 82.4228 207.171 82.5622 206.939 83.4251C206.842 83.7854 207.468 84.2142 207.452 84.7114C207.441 84.9876 207.273 85.3796 207.286 85.6795C207.305 86.0952 207.72 86.2767 207.781 86.7081C207.82 86.979 207.415 87.2395 207.47 87.5052C207.528 87.784 208.054 87.9761 208.128 88.2365C208.225 88.5837 207.967 88.8363 207.967 89.1704C207.967 89.5729 208.278 89.6649 208.659 89.9017C208.938 90.0753 208.656 90.9592 208.824 91.1276C208.972 91.2775 209.411 91.5379 209.463 91.6958C209.592 92.0614 209.311 92.3377 209.353 92.5376C209.419 92.848 210.016 92.9559 210.11 93.2321C210.202 93.5004 209.968 93.9371 209.903 94.258C209.847 94.5264 210.363 94.792 210.386 94.992C210.46 95.5786 210.263 95.9469 210.25 96.1442C210.231 96.3994 210.886 96.9071 210.87 97.2359C210.584 104.133 192.299 102.808 192.496 97.9646C192.509 97.6621 193.153 97.4674 192.948 97.1123C192.806 96.865 192.68 96.673 192.577 96.3888C192.467 96.0811 193.111 95.8022 193.25 95.5102C193.461 95.0656 192.617 94.8131 192.866 93.9608C193.058 93.3031 193.689 93.4399 193.634 92.919C193.59 92.4981 193.145 91.9483 193.224 91.6011C193.461 90.5357 194.378 90.441 194.047 90.12C193.689 89.7728 193.455 89.6097 193.6 88.8652C193.663 88.5469 194.136 87.8577 194.136 87.8577C194.092 87.2895 193.479 86.9685 193.697 86.0794C194.01 84.814 194.436 85.7558 194.318 83.8012C194.3 83.4435 194.915 77.9375 201.583 78.7872Z" fill="#0E2549"/>
<path d="M198.619 89.2729C198.619 89.2729 198.861 95.1998 198.635 95.5128C197.862 96.5809 195.566 97.52 195.043 97.6594C194.52 97.8015 202.984 103.189 202.984 103.189L207.967 99.13L206.286 97.6121C206.286 97.6121 204.874 96.9018 204.251 96.2599C203.631 95.6181 203.328 89.5886 203.328 89.5886L198.619 89.2729Z" fill="white"/>
<path d="M203.01 103.673L202.771 103.521C194.53 98.2752 194.583 97.9279 194.63 97.6202C194.657 97.4544 194.775 97.3229 194.941 97.2782C195.49 97.1309 197.575 96.2391 198.285 95.321C198.382 94.8396 198.333 91.9143 198.227 89.2889L198.209 88.8496L203.704 89.2153L203.723 89.5651C203.862 92.3431 204.215 95.5893 204.538 95.9865C205.006 96.4706 206.087 97.0677 206.463 97.2571L206.51 97.2808L208.572 99.1433L203.01 103.673ZM195.724 97.8385C196.797 98.6882 199.981 100.806 202.955 102.703L207.359 99.1144L206.058 97.9411C205.795 97.8043 204.567 97.1545 203.965 96.5337C203.349 95.8971 203.06 91.9669 202.95 89.9571L199.029 89.6967C199.248 95.3368 199.042 95.6209 198.953 95.7445C198.277 96.6758 196.66 97.4676 195.724 97.8385Z" fill="#0E2549"/>
<path d="M199.148 90.6991C198.451 90.2361 196.776 88.8419 196.742 87.9317C196.71 87.0189 197.749 87.1267 198.067 87.2714C198.278 87.3661 198.062 82.8046 198.062 82.8046L205.119 82.4258C205.119 82.4258 206.166 86.3481 205.913 88.8682C205.661 91.3989 204.475 91.8198 202.661 92.1355L199.148 90.6991Z" fill="white"/>
<path d="M202.661 92.5269C202.471 92.5269 202.306 92.3927 202.272 92.2007C202.235 91.985 202.377 91.7824 202.592 91.7456C204.415 91.4273 205.298 91.0379 205.519 88.8282C205.721 86.8105 205.048 83.801 204.814 82.8356L198.472 83.1749C198.661 87.3498 198.501 87.4576 198.301 87.5944L198.117 87.7181L197.901 87.6286C197.767 87.5681 197.402 87.526 197.231 87.6391C197.199 87.6602 197.126 87.7102 197.134 87.9154C197.155 88.5257 198.469 89.7752 199.363 90.3698C199.545 90.4908 199.595 90.7354 199.474 90.9169C199.353 91.0984 199.108 91.1484 198.927 91.0274C198.901 91.0116 196.395 89.2859 196.345 87.9443C196.329 87.5287 196.489 87.1867 196.792 86.9841C197.073 86.7947 197.439 86.7553 197.754 86.7895C197.783 86.066 197.738 84.3614 197.665 82.8198L197.646 82.4278L205.414 82.0122L205.495 82.3226C205.54 82.4857 206.558 86.3449 206.3 88.9071C206.016 91.7298 204.578 92.2007 202.721 92.5243C202.705 92.5243 202.682 92.5269 202.661 92.5269Z" fill="#0E2549"/>
<path d="M205.934 82.2594C205.934 82.2594 205.448 82.2857 204.58 82.6224C204.38 82.6987 204.254 83.3353 204.03 83.4274C203.778 83.5326 203.318 83.2538 203.044 83.3774C202.76 83.509 202.639 83.8983 202.348 84.0482C202.119 84.1666 201.719 84.0403 201.493 84.1719C201.114 84.3876 201.022 84.8164 200.67 85.0663C200.439 85.2294 199.784 85.2294 199.587 85.4241C199.221 85.7818 199.216 86.3658 199.074 86.5026C198.582 86.9788 198.39 86.7762 198.167 87.3286C198.167 87.3286 197.767 87.1498 197.478 87.1734C197.107 87.2024 196.976 87.3286 196.976 87.3286L197.381 82.1016L205.934 82.2594Z" fill="#0E2549"/>
<path d="M218.845 109.034H191.063C190.605 104.315 190.665 100.009 192.088 98.546C193.324 97.2728 194.418 97.1412 195.022 97.1412C196.837 97.1386 204.788 104.504 207.031 97.2307C207.354 96.1863 209.81 97.4938 210.505 98.0436C212.482 99.6088 216.968 105.846 218.845 109.034Z" fill="#F9E5EF"/>
<path d="M219.534 109.429H190.702L190.668 109.071C190.097 103.176 190.468 99.6429 191.804 98.2697C192.785 97.2595 193.868 96.7465 195.02 96.7465C195.02 96.7465 195.02 96.7465 195.022 96.7465C195.59 96.7465 196.44 97.22 197.618 97.8751C199.708 99.0378 202.569 100.632 204.572 99.827C205.527 99.4429 206.208 98.5564 206.652 97.1148C206.744 96.8123 206.965 96.5966 207.27 96.5019C208.319 96.1783 210.283 97.37 210.746 97.7356C212.776 99.343 217.262 105.578 219.181 108.837L219.534 109.429ZM191.42 108.64H218.145C216.095 105.309 212.048 99.7691 210.26 98.3538C209.652 97.8724 208.075 97.0806 207.507 97.2542C207.441 97.2753 207.423 97.299 207.407 97.3463C206.894 99.0062 206.04 100.087 204.867 100.558C202.514 101.503 199.463 99.806 197.234 98.5643C196.324 98.0566 195.382 97.5331 195.02 97.5331C194.073 97.5331 193.208 97.954 192.367 98.8168C191.593 99.6192 190.81 101.974 191.42 108.64Z" fill="#1B2746"/>
<path d="M169.671 145.582C164.844 142.684 171.247 139.685 172.816 141.255C174.028 142.468 173.332 143.717 172.924 144.251C174.065 144.109 175.196 144.315 176.15 144.975C180.336 147.869 177.952 152.28 177.952 152.28C177.952 152.28 176.476 159.891 171.083 156.797C164.676 153.125 166.306 148.003 169.671 145.582Z" fill="#0E2549"/>
<path d="M171.167 154.229C171.167 154.229 171.443 159.972 171.228 160.275C170.486 161.314 168.27 162.242 167.762 162.382C167.257 162.521 176.084 165.815 176.084 165.815L180.294 163.71L178.653 162.253C178.653 162.253 177.278 161.574 176.673 160.956C176.066 160.338 175.729 154.498 175.729 154.498L171.167 154.229Z" fill="white"/>
<path d="M176.109 166.246L175.948 166.186C167.324 162.968 167.334 162.737 167.35 162.384C167.358 162.206 167.481 162.053 167.66 162.003C168.189 161.856 170.198 160.98 170.879 160.088C170.968 159.614 170.9 156.786 170.776 154.248L170.755 153.809L176.106 154.124L176.127 154.474C176.282 157.157 176.645 160.293 176.961 160.682C177.415 161.145 178.465 161.716 178.83 161.898L178.877 161.921L180.994 163.802L176.109 166.246ZM168.659 162.466C169.998 163.068 173.145 164.297 176.061 165.386L179.598 163.618L178.433 162.582C178.173 162.45 176.979 161.829 176.393 161.232C175.79 160.619 175.48 156.821 175.359 154.871L171.583 154.648C171.836 160.101 171.636 160.383 171.549 160.504C170.952 161.34 169.58 162.069 168.659 162.466Z" fill="#0E2549"/>
<path d="M171.768 155.934C171.089 155.492 169.377 153.827 169.338 152.943C169.299 152.059 170.308 152.154 170.616 152.293C170.821 152.385 170.487 147.416 170.487 147.416L177.308 146.855C177.308 146.855 178.457 151.341 178.231 153.782C178.005 156.236 176.885 156.878 175.102 156.97L171.768 155.934Z" fill="white"/>
<path d="M175.104 157.368C174.896 157.368 174.722 157.205 174.709 156.994C174.699 156.776 174.864 156.592 175.083 156.579C176.671 156.494 177.628 156.005 177.838 153.748C178.022 151.772 177.257 148.339 177.005 147.277L170.907 147.779C171.207 152.37 171.06 152.475 170.854 152.617L170.673 152.743L170.457 152.654C170.326 152.596 169.976 152.562 169.819 152.669C169.79 152.688 169.724 152.735 169.732 152.927C169.761 153.582 171.278 155.145 171.983 155.605C172.164 155.724 172.217 155.968 172.098 156.152C171.98 156.334 171.735 156.387 171.551 156.268C170.96 155.881 168.993 154.098 168.943 152.964C168.924 152.556 169.077 152.222 169.374 152.02C169.64 151.838 169.987 151.793 170.289 151.82C170.3 151.041 170.21 149.155 170.095 147.445L170.068 147.058L177.607 146.438L177.688 146.761C177.736 146.948 178.853 151.341 178.622 153.824C178.404 156.195 177.357 157.255 175.122 157.37C175.119 157.365 175.112 157.368 175.104 157.368Z" fill="#0E2549"/>
<path d="M184.323 171.47C184.349 169.576 184.191 164.334 181.506 162.537C180.536 161.884 179.937 161.44 179.479 161.195C179.471 161.19 179.463 161.187 179.455 161.187C179.198 161.04 178.987 160.972 178.782 160.956C178.761 160.953 178.738 160.953 178.717 160.953C178.669 160.956 178.625 160.961 178.58 160.974H178.577C178.575 160.972 178.575 160.972 178.572 160.974C178.283 161.043 178.043 161.295 177.804 161.627C177.778 161.663 177.752 161.698 177.725 161.737C177.681 161.8 177.636 161.863 177.591 161.932V161.937C176.666 163.297 175.482 165.275 171.189 162.363C171.11 162.311 171.031 162.255 170.949 162.2C170.676 162.008 170.392 161.795 170.092 161.563C170.013 161.5 169.916 161.461 169.808 161.44C169.719 161.421 169.621 161.416 169.516 161.421C169.159 161.435 168.722 161.569 168.304 161.734C167.912 161.884 167.534 162.063 167.242 162.192C165.64 162.897 165.612 164.199 165.914 165.42C166.201 166.577 166.784 167.661 166.605 168.095L166.679 169.563L166.863 171.457L184.323 171.47Z" fill="#8A9DF8"/>
<path d="M185.185 170.989C185.161 171.221 185.13 171.581 185.093 171.807L178.803 171.839C178.42 169.119 178.107 166.599 177.938 164.76V164.757C177.815 163.392 177.762 162.327 177.796 161.648C177.799 161.593 177.804 161.543 177.807 161.495C177.846 161.035 177.93 160.79 178.075 160.795C178.238 160.801 178.406 160.817 178.575 160.843C178.577 160.84 178.577 160.84 178.58 160.843H178.583C178.646 160.851 178.709 160.861 178.772 160.874C179.001 160.916 179.229 160.977 179.458 161.056C179.466 161.056 179.474 161.059 179.482 161.064C180.812 161.519 182.161 162.571 183.147 164.281C183.939 165.654 185.409 168.858 185.185 170.989Z" fill="#F9E5EF"/>
<path d="M178.462 172.234L178.415 171.892C178.007 169.003 177.707 166.549 177.547 164.794L177.544 164.773C177.416 163.358 177.368 162.298 177.402 161.627C177.405 161.593 177.408 161.559 177.41 161.527L177.415 161.472C177.442 161.164 177.502 160.388 178.091 160.401C178.254 160.406 178.423 160.422 178.591 160.446L178.741 160.443L178.767 160.469C178.796 160.475 178.825 160.48 178.854 160.485C179.072 160.525 179.298 160.583 179.524 160.659H179.58L179.651 160.701C181.178 161.235 182.543 162.435 183.492 164.081C184.315 165.512 185.814 168.803 185.58 171.026L185.564 171.184C185.543 171.402 185.517 171.676 185.485 171.868L185.433 172.197L178.462 172.234ZM178.333 164.742C178.486 166.415 178.767 168.724 179.148 171.442L184.746 171.413C184.757 171.31 184.767 171.205 184.778 171.108L184.794 170.945C184.991 169.069 183.713 166.049 182.806 164.476C181.951 162.995 180.742 161.922 179.393 161.448L179.33 161.427C179.119 161.356 178.909 161.298 178.701 161.261C178.696 161.261 178.691 161.259 178.686 161.259L178.544 161.238H178.417L178.396 161.217C178.346 161.211 178.294 161.206 178.244 161.201C178.228 161.269 178.212 161.372 178.199 161.53L178.189 161.666C178.157 162.306 178.204 163.334 178.331 164.721L178.333 164.742Z" fill="#1B2746"/>
<path d="M171.444 164.847C171.399 164.542 171.352 164.252 171.307 163.981C171.186 163.253 171.068 162.653 170.952 162.2C170.813 161.637 170.679 161.301 170.552 161.232C170.473 161.187 170.387 161.153 170.292 161.132C170.155 161.095 170 161.08 169.835 161.08C169.461 161.082 169.03 161.166 168.588 161.301C168.588 161.301 163.555 161.622 162.267 168.49C162.046 169.661 161.838 170.802 161.646 171.897L166.798 171.878L166.853 171.876H167.053H167.3L170.421 171.863L172.162 171.857H172.314C172.017 169.082 171.722 166.667 171.444 164.847Z" fill="#F9E5EF"/>
<path d="M161.176 172.294L161.257 171.828C161.452 170.718 161.662 169.571 161.878 168.416C163.135 161.708 167.949 160.974 168.509 160.911C169.006 160.763 169.451 160.687 169.829 160.685C170.04 160.685 170.229 160.706 170.392 160.75C170.505 160.774 170.629 160.824 170.744 160.887C170.947 160.998 171.118 161.24 171.333 162.102C171.449 162.55 171.57 163.16 171.693 163.912C171.738 164.186 171.786 164.478 171.83 164.783C172.096 166.517 172.388 168.879 172.703 171.81L172.751 172.246L166.813 172.267L161.176 172.294ZM169.834 161.474C169.527 161.476 169.135 161.547 168.704 161.679L168.614 161.695C168.422 161.708 163.868 162.1 162.656 168.563C162.469 169.555 162.288 170.539 162.12 171.502L171.878 171.465C171.583 168.747 171.307 166.543 171.057 164.907V164.904C171.012 164.602 170.965 164.315 170.92 164.047C170.799 163.315 170.681 162.729 170.573 162.3C170.447 161.789 170.36 161.613 170.329 161.561C170.289 161.542 170.25 161.529 170.21 161.521C170.092 161.487 169.974 161.474 169.834 161.474ZM170.358 161.576C170.36 161.576 170.363 161.579 170.363 161.579C170.36 161.576 170.36 161.576 170.358 161.576Z" fill="#1B2746"/>
<path d="M178.583 164.468L180.365 167.556L179.453 171.834H179.45L178.577 171.836L178.099 171.839L177.602 164.96L177.384 161.942V161.937L177.363 161.648L177.221 159.701L178.509 160.959L178.562 161.011L180.481 162.884L179.719 163.389L178.449 164.234L178.583 164.468Z" fill="white"/>
<path d="M177.78 172.183L176.812 158.828L181.022 162.937L178.903 164.341L180.725 167.498L179.729 172.176L177.78 172.183ZM177.628 160.574L178.416 171.494L179.176 171.492L180.005 167.614L177.993 164.126L179.939 162.834L177.628 160.574Z" fill="#0E2549"/>
<path d="M172.162 171.857L170.421 171.863L168.794 168.201L170.471 164.734L167.474 163.637L168.307 162.734L169.185 161.782L169.519 161.422L169.835 161.08L170.937 159.885L171.005 160.543L171.192 162.363L171.357 164.002L171.444 164.847L172.162 171.857Z" fill="white"/>
<path d="M170.163 172.257L168.357 168.193L169.924 164.954L166.779 163.805L171.236 158.978L172.596 172.252L170.163 172.257ZM169.227 168.208L170.676 171.468L171.725 171.465L171.013 164.518L169.227 168.208ZM168.165 163.468L171.013 164.51L170.634 160.793L168.165 163.468Z" fill="#0E2549"/>
<path d="M178.256 150.484C178.256 150.484 177.557 147.898 175.172 147.992C173.912 148.042 172.393 148.363 171.696 149.026C171.023 149.666 170.523 152.338 170.523 152.338L169.306 147.319L177.057 146.006L178.256 150.484Z" fill="#0E2549"/>
<path d="M85.0166 232.331C85.0166 232.331 93.8357 256.756 93.8357 266.684C93.8357 276.612 95.608 285.948 102.957 288.929C110.306 291.912 115.613 287.39 116.856 285.601C118.392 283.394 121.432 269.402 106.41 253.044C100.514 246.62 85.0166 232.331 85.0166 232.331Z" fill="#AFEBF1"/>
<path d="M107.835 290.323C106.3 290.323 104.617 290.028 102.81 289.295C96.5076 286.738 93.4417 279.34 93.4417 266.682C93.4417 256.935 84.733 232.704 84.6462 232.462L84.0967 230.944L85.2826 232.039C85.4377 232.181 100.859 246.415 106.702 252.776C114.764 261.554 117.422 269.47 118.232 274.566C119.152 280.345 118.074 284.538 117.18 285.825C116.184 287.261 112.776 290.323 107.835 290.323ZM85.9241 233.707C87.8541 239.228 94.2331 258.114 94.2331 266.684C94.2331 278.985 97.136 286.14 103.11 288.566C110.246 291.462 115.321 287.124 116.539 285.378C117.814 283.544 121.308 269.846 106.126 253.313C101.246 248.001 89.65 237.168 85.9241 233.707Z" fill="#1B2746"/>
<path d="M115.479 303.105C115.306 303.105 115.156 302.974 115.135 302.797C113.326 286.503 96.5948 252.515 96.4265 252.173C96.3424 252.002 96.4107 251.792 96.5843 251.708C96.7552 251.624 96.9629 251.695 97.0497 251.866C97.218 252.208 114.002 286.303 115.826 302.719C115.847 302.908 115.711 303.082 115.519 303.1C115.506 303.105 115.493 303.105 115.479 303.105Z" fill="#0E2549"/>
<path d="M109.342 203.896C109.342 203.896 101.827 236.292 105.945 255.967C110.063 275.641 114.246 283.036 119.502 277.73C124.759 272.424 123.065 238.171 119.352 227.364C115.637 216.56 109.342 203.896 109.342 203.896Z" fill="#AFEBF1"/>
<path d="M116.323 279.79C116.016 279.79 115.713 279.745 115.411 279.656C111.837 278.601 108.708 271.098 105.556 256.046C101.467 236.513 108.879 204.13 108.956 203.807L109.203 202.736L109.692 203.72C109.755 203.846 116.039 216.531 119.72 227.238C121.551 232.559 122.942 243.555 123.181 254.602C123.31 260.478 123.233 274.521 119.778 278.009C118.608 279.193 117.449 279.79 116.323 279.79ZM109.484 205.085C108.233 210.914 102.703 238.549 106.331 255.885C109.374 270.422 112.419 277.948 115.637 278.901C116.757 279.232 117.93 278.759 119.221 277.454C121.472 275.184 122.658 266.647 122.395 254.62C122.158 243.819 120.754 232.665 118.976 227.495C115.918 218.591 111.043 208.302 109.484 205.085Z" fill="#1B2746"/>
<path d="M119.097 303.105C119.086 303.105 119.078 303.105 119.068 303.103C118.876 303.087 118.734 302.919 118.75 302.729C119.56 292.783 110.88 227.288 110.79 226.627C110.764 226.438 110.898 226.264 111.088 226.238C111.279 226.214 111.453 226.346 111.477 226.535C111.834 229.234 120.254 292.764 119.439 302.784C119.425 302.969 119.276 303.105 119.097 303.105Z" fill="#0E2549"/>
<path d="M146.859 232.877C146.859 232.877 138.039 257.303 138.039 267.231C138.039 277.159 136.267 286.495 128.918 289.476C121.569 292.459 116.262 287.937 115.019 286.145C113.483 283.938 110.444 269.946 125.466 253.588C131.361 247.17 146.859 232.877 146.859 232.877Z" fill="#AFEBF1"/>
<path d="M124.043 290.873C119.102 290.873 115.694 287.811 114.695 286.375C113.801 285.088 112.723 280.895 113.643 275.115C114.453 270.02 117.112 262.104 125.173 253.326C131.016 246.962 146.438 232.731 146.593 232.588L147.779 231.494L147.229 233.012C147.142 233.257 138.434 257.485 138.434 267.231C138.434 279.89 135.37 287.285 129.065 289.842C127.261 290.576 125.578 290.873 124.043 290.873ZM145.954 234.256C142.228 237.716 130.629 248.551 125.755 253.86C110.572 270.393 114.067 284.091 115.342 285.922C116.557 287.669 121.634 292.007 128.77 289.11C134.742 286.688 137.647 279.53 137.647 267.231C137.645 258.663 144.021 239.778 145.954 234.256Z" fill="#1B2746"/>
<path d="M116.399 303.655C116.386 303.655 116.373 303.655 116.36 303.652C116.17 303.631 116.031 303.46 116.052 303.268C117.874 286.853 134.658 252.757 134.829 252.415C134.913 252.244 135.121 252.173 135.294 252.258C135.465 252.342 135.536 252.552 135.452 252.723C135.284 253.065 118.552 287.05 116.743 303.347C116.722 303.523 116.573 303.655 116.399 303.655Z" fill="#0E2549"/>
<path d="M96.4023 302.758H137.316L132.418 346.511L101.056 346.606L96.4023 302.758Z" fill="#634CFF"/>
<path d="M375.038 293.003C375.038 293.003 385.032 344.051 384.333 346.505C383.631 348.96 369.358 294.085 369.358 294.085L375.038 293.003Z" fill="#0E2549"/>
<path d="M359.774 297.57C359.774 297.57 359.614 344.969 358.386 346.548C357.158 348.126 354.179 298.033 354.179 298.033L359.774 297.57Z" fill="#0E2549"/>
<path d="M327.711 297.57C327.711 297.57 335.775 345.393 334.198 346.584C332.62 347.776 322.623 297.362 322.623 297.362L327.711 297.57Z" fill="#0E2549"/>
<path d="M314.571 296.808C314.571 296.808 298.261 345.495 295.279 345.845C292.3 346.195 308.926 296.3 308.926 296.3L314.571 296.808Z" fill="#0E2549"/>
<path d="M368.711 194.762C368.711 194.762 391.955 191.811 393.007 201.749C394.059 211.685 396.583 285.606 380.859 293.498C365.135 301.39 308.602 296.918 301.766 295.34C294.929 293.761 296.507 269.822 296.507 269.822L355.143 261.931L362.419 196.954L368.711 194.762Z" fill="#AFEBF1"/>
<path d="M344.65 298.417C325.142 298.417 305.211 296.539 301.68 295.724C294.599 294.087 296.05 270.788 296.116 269.796L296.137 269.475L296.455 269.433L354.786 261.583L362.057 196.664L368.662 194.373C369.314 194.291 384.691 192.403 390.888 197.311C392.369 198.485 393.215 199.963 393.399 201.71C393.957 206.971 394.811 227.887 393.618 248.417C392.934 260.202 391.69 269.928 389.923 277.325C387.749 286.424 384.759 291.986 381.038 293.853C374.105 297.328 359.501 298.417 344.65 298.417ZM296.884 270.17C296.81 271.493 296.576 276.688 296.968 281.965C297.557 289.86 299.247 294.35 301.856 294.953C308.043 296.381 364.796 301.116 380.683 293.143C387.118 289.915 391.317 274.431 392.831 248.364C394.023 227.88 393.171 207.032 392.616 201.786C392.453 200.26 391.709 198.961 390.399 197.924C384.607 193.337 369.687 195.039 368.801 195.146L362.785 197.24L355.501 262.275L296.884 270.17Z" fill="#1B2746"/>
<path d="M381.42 217.544C381.459 217.331 381.317 217.123 381.102 217.086C380.886 217.047 380.681 217.189 380.644 217.404C380.568 217.82 373.158 258.674 373.526 274.397H349.535C349.301 274.397 349.109 274.589 349.109 274.823C349.109 275.06 349.301 275.25 349.535 275.25H379.072C379.306 275.25 379.498 275.06 379.498 274.823C379.498 274.589 379.306 274.397 379.072 274.397H374.315C373.942 258.774 381.344 217.957 381.42 217.544Z" fill="#0E2549"/>
<path d="M253.945 315.566L249.319 335.215H262.453L265.995 321.985L253.945 315.566Z" fill="white"/>
<path d="M262.83 335.707H248.699L253.611 314.833L266.569 321.733L262.83 335.707ZM249.94 334.725H262.078L265.422 322.235L254.279 316.3L249.94 334.725Z" fill="#0E2549"/>
<path d="M248.599 334.644C248.599 334.644 229.62 340.67 228.965 345.637H262.998V334.644H248.599Z" fill="#634CFF"/>
<path d="M300.357 325.605L301.893 335.407H314.322L313.008 324.737L300.357 325.605Z" fill="white"/>
<path d="M314.876 335.899H301.472L299.786 325.153L313.435 324.213L314.876 335.899ZM302.313 334.915H313.767L312.576 325.258L300.922 326.06L302.313 334.915Z" fill="#0E2549"/>
<path d="M301.172 334.833C301.172 334.833 282.193 340.86 281.538 345.826H315.571V334.833H301.172Z" fill="#634CFF"/>
<path d="M280.3 343.941V346.798H316.46V343.53L280.3 343.941Z" fill="#0E2549"/>
<path d="M264.063 343.562V346.605H227.9V343.341L264.063 343.562Z" fill="#0E2549"/>
<path d="M253.737 341.957C253.535 341.957 253.353 341.82 253.301 341.618C253.24 341.375 253.385 341.131 253.627 341.07L257.084 340.194H253.403C253.077 340.194 252.809 339.96 252.764 339.637C252.719 339.313 252.917 339.016 253.232 338.929L258.394 337.503H255.036C254.786 337.503 254.586 337.301 254.586 337.053C254.586 336.803 254.789 336.604 255.036 336.604H260.29C260.616 336.604 260.884 336.838 260.929 337.161C260.973 337.485 260.776 337.782 260.46 337.869L255.299 339.295H259.143C259.472 339.295 259.743 339.531 259.782 339.86C259.824 340.189 259.622 340.484 259.301 340.565L253.847 341.946C253.811 341.954 253.774 341.957 253.737 341.957Z" fill="#0E2549"/>
<path d="M306.736 342.149C306.534 342.149 306.352 342.012 306.3 341.809C306.239 341.567 306.384 341.323 306.626 341.262L310.083 340.386H306.402C306.076 340.386 305.808 340.152 305.763 339.829C305.718 339.505 305.916 339.208 306.231 339.121L311.395 337.695H308.038C307.788 337.695 307.588 337.493 307.588 337.245C307.588 336.995 307.79 336.795 308.038 336.795H313.291C313.617 336.795 313.885 337.03 313.93 337.353C313.975 337.677 313.778 337.974 313.462 338.061L308.301 339.487H312.145C312.473 339.487 312.744 339.723 312.784 340.052C312.823 340.378 312.623 340.676 312.303 340.757L306.849 342.138C306.81 342.144 306.773 342.149 306.736 342.149Z" fill="#0E2549"/>
<path d="M330.09 142.688C330.09 142.688 331.563 158.151 330.324 159.861C329.089 161.571 327.009 168.89 327.009 168.89L333.916 199.918L359.469 197.448L355.714 173.651C355.714 173.651 349.462 161.774 348.757 159.822C347.784 157.12 347.781 142.688 347.781 142.688H330.09Z" fill="white"/>
<path d="M333.609 200.347L326.604 168.879L326.631 168.782C326.718 168.479 328.742 161.376 330.007 159.63C330.843 158.472 330.262 148.647 329.699 142.725C329.678 142.51 329.839 142.315 330.054 142.294C330.273 142.27 330.464 142.433 330.486 142.649C330.638 144.246 331.934 158.312 330.649 160.09C329.542 161.621 327.669 168.037 327.42 168.9L334.23 199.492L359.017 197.095L355.339 173.777C354.81 172.775 349.078 161.86 348.392 159.956C347.406 157.22 347.393 143.28 347.393 142.688C347.393 142.47 347.569 142.294 347.787 142.294C348.005 142.294 348.182 142.47 348.182 142.688C348.182 142.833 348.195 157.083 349.133 159.688C349.82 161.592 356.004 173.348 356.067 173.467L356.099 173.525L356.109 173.591L359.93 197.803L333.609 200.347Z" fill="#0E2549"/>
<path d="M333.612 113.459C330.425 113.904 322.671 114.883 322.855 120.604C323.065 127.131 324.438 135.491 325.234 139.889C325.55 141.626 327.086 142.867 328.845 142.809L348.547 142.173C350.351 142.115 351.826 140.71 351.973 138.906C352.47 132.831 353.406 119.975 352.628 118.066C349.975 111.571 338.658 112.757 333.612 113.459Z" fill="#0E2549"/>
<path d="M347.158 146.487C348.186 145.348 348.473 140.957 348.431 135.964C348.431 135.82 348.502 135.688 348.62 135.612C349.887 134.799 351.707 133.089 351.573 130.616C351.457 128.472 349.922 128.972 348.728 129.704C348.515 129.832 348.247 129.68 348.233 129.425C347.944 123.411 347.442 118.145 347.442 118.145L324.032 118.9C324.032 118.9 324.25 124.263 324.669 130.274C324.687 130.545 326.133 144.867 326.738 146.148C327.067 146.845 327.674 147.413 328.476 147.866C328.476 147.866 330.017 149.047 338.526 148.77L347.158 146.487Z" fill="white"/>
<path d="M336.072 149.205C330.067 149.205 328.523 148.373 328.266 148.197C327.364 147.687 326.73 147.053 326.383 146.313C325.728 144.924 324.287 130.435 324.277 130.298C323.864 124.35 323.64 118.965 323.638 118.913L323.622 118.515L347.8 117.737L347.834 118.105C347.839 118.158 348.333 123.39 348.623 129.306C349.677 128.683 350.516 128.525 351.115 128.841C351.633 129.114 351.92 129.704 351.967 130.595C352.125 133.513 349.827 135.307 348.833 135.946C348.875 142.144 348.426 145.672 347.45 146.753C347.303 146.916 347.056 146.926 346.893 146.782C346.73 146.637 346.719 146.387 346.864 146.224C347.329 145.708 348.097 143.693 348.036 135.97C348.034 135.688 348.173 135.433 348.407 135.281C349.285 134.718 351.315 133.139 351.179 130.637C351.158 130.227 351.063 129.706 350.747 129.538C350.408 129.359 349.745 129.54 348.933 130.038C348.717 130.169 348.452 130.177 348.228 130.059C347.997 129.935 347.852 129.704 347.839 129.441C347.597 124.405 347.2 119.849 347.084 118.547L324.442 119.278C324.5 120.631 324.713 125.237 325.063 130.246C325.108 130.845 326.551 144.827 327.096 145.977C327.374 146.569 327.905 147.089 328.671 147.521L328.718 147.552C328.726 147.558 330.422 148.639 338.515 148.379C338.723 148.368 338.915 148.542 338.923 148.76C338.931 148.978 338.76 149.16 338.541 149.168C337.645 149.191 336.824 149.205 336.072 149.205Z" fill="#0E2549"/>
<path d="M337.445 132.016C337.106 132.016 336.82 131.755 336.791 131.411L336.751 130.927C336.722 130.564 336.99 130.248 337.353 130.216C337.716 130.185 338.032 130.456 338.063 130.819L338.103 131.303C338.132 131.666 337.863 131.982 337.501 132.013C337.482 132.013 337.464 132.016 337.445 132.016Z" fill="#0E2549"/>
<path d="M327.604 132.721C327.254 132.721 326.962 132.445 326.946 132.09L326.923 131.519C326.907 131.156 327.188 130.851 327.551 130.835C327.906 130.816 328.219 131.101 328.235 131.464L328.258 132.034C328.274 132.397 327.993 132.703 327.63 132.718C327.622 132.721 327.614 132.721 327.604 132.721Z" fill="#0E2549"/>
<path d="M341.947 128.431C341.805 128.431 341.668 128.355 341.597 128.22C340.367 125.9 335.792 127.255 335.747 127.268C335.539 127.331 335.318 127.213 335.255 127.005C335.192 126.797 335.31 126.576 335.518 126.513C335.731 126.447 340.761 124.956 342.294 127.85C342.397 128.042 342.323 128.281 342.131 128.384C342.073 128.418 342.01 128.431 341.947 128.431Z" fill="#0E2549"/>
<path d="M332.142 137.259C332.118 137.259 332.094 137.256 332.071 137.254C331.723 137.19 329.985 136.827 329.772 135.857C329.688 135.465 329.872 134.449 330.319 132.224C330.645 130.59 331.095 128.357 330.985 127.896C330.95 127.752 330.787 127.646 330.656 127.583C329.87 127.207 328.061 127.273 326.262 128.136C326.065 128.23 325.831 128.146 325.736 127.952C325.642 127.754 325.726 127.52 325.92 127.426C327.753 126.547 329.838 126.321 330.995 126.873C331.516 127.123 331.695 127.47 331.752 127.715C331.892 128.302 331.595 129.867 331.092 132.379C330.824 133.721 330.49 135.388 330.543 135.691C330.609 135.988 331.474 136.346 332.21 136.478C332.425 136.517 332.567 136.722 332.528 136.935C332.494 137.125 332.328 137.259 332.142 137.259Z" fill="#0E2549"/>
<path d="M329.767 140.034C329.512 140.355 330.642 142.849 331.799 142.712C334.763 142.357 336.459 138.85 335.751 139.058C335.475 139.14 333.603 139.708 332.352 139.934C330.65 140.242 330.056 139.668 329.767 140.034Z" fill="#0E2549"/>
<path d="M351.463 120.954C349.067 116.903 352.948 115.88 350.5 113.823C349.038 112.594 346.388 112.694 346.388 112.694L346.296 112.828C345.825 112.002 345.041 111.408 343.724 111.594C340.109 112.102 339.638 108.519 336.249 109.022C332.859 109.524 334.713 110.5 331.226 111.415C327.74 112.331 325.965 110.395 325.045 113.157C324.124 115.919 321.374 115.275 320.193 117.156C319.013 119.036 319.444 121.191 321.171 121.862C322.899 122.535 320.298 124.064 321.716 125.566C323.133 127.068 328.947 126.781 329.885 124.495C330.824 122.209 331.316 120.654 333.477 120.494C335.639 120.333 338.289 121.391 339.748 120.941C341.208 120.491 343.169 118.876 343.979 119.265C344.789 119.655 345.657 120.988 346.446 120.865C346.509 120.854 346.585 120.828 346.664 120.786C347.468 121.572 348.228 122.351 348.16 123.737C348.068 125.595 352.625 122.919 351.463 120.954Z" fill="#0E2549"/>
<path d="M314.295 243.727C314.295 243.727 272.579 241.993 271.528 251.553C270.476 261.112 296.047 328.746 296.047 328.746L316.097 326.076C316.097 326.076 301.671 276.483 302.297 272.924C304.769 258.85 362.419 241.759 362.419 241.759L314.295 243.727Z" fill="#0E2549"/>
<path d="M366.8 243.584C366.8 243.584 372.659 274.447 344.647 276.349C316.36 278.269 292.303 270.609 286.145 275.454C284.341 276.875 269.275 327.943 269.275 327.943L247.34 324.734C247.34 324.734 266.976 258.408 270.292 251.471C273.437 244.894 285.461 244.144 311.054 243.581C336.651 243.021 366.8 243.584 366.8 243.584Z" fill="#0E2549"/>
<path d="M369.256 197.953C371.36 213.516 368.029 246.144 368.029 246.144L311.057 243.995C311.057 243.995 321.624 156.484 329.463 155.476C332.77 155.05 336.299 159.53 345.063 155.476C353.83 151.425 367.153 182.39 369.256 197.953Z" fill="#634CFF"/>
<path d="M249.948 214.589C249.948 214.589 257.61 205.145 269.869 209.228C271.257 209.691 273.24 210.693 271.88 214.589H249.948Z" stroke="#1D1D1B" stroke-miterlimit="10"/>
<path d="M272.162 214.984H249.12L249.643 214.339C249.722 214.242 257.621 204.732 269.995 208.852C270.829 209.128 271.854 209.588 272.391 210.677C272.885 211.682 272.838 213.042 272.254 214.718L272.162 214.984ZM250.85 214.195H271.596C272.025 212.853 272.054 211.787 271.681 211.027C271.273 210.199 270.432 209.83 269.743 209.601C259.777 206.284 252.851 212.174 250.85 214.195Z" fill="#634CFF"/>
<path d="M274.925 213.445C279.708 213.034 300.657 213.463 300.657 213.463L298.472 204.729C298.472 204.729 276.114 208.536 274.423 208.049C271.247 207.137 269.156 206.063 265.404 205.916C260.44 205.721 253.69 207.431 253.766 208.781C253.806 209.509 262.609 208.41 264.321 209.096C269.159 211.038 271.518 213.739 274.925 213.445Z" fill="white"/>
<path d="M301.166 213.868L300.651 213.858C300.443 213.853 279.668 213.432 274.961 213.837C272.716 214.032 270.957 213.027 268.73 211.756C267.439 211.019 265.977 210.183 264.178 209.462C263.392 209.146 260.607 209.26 258.37 209.349C254.291 209.515 253.413 209.486 253.376 208.802C253.361 208.536 253.476 208.276 253.721 208.028C255.086 206.642 261.102 205.353 265.424 205.521C268.259 205.632 270.197 206.271 272.25 206.95C272.974 207.189 273.72 207.437 274.538 207.671C275.713 208.01 289.46 205.863 298.411 204.34L298.771 204.28L301.166 213.868ZM261.785 208.465C262.982 208.465 263.965 208.528 264.47 208.731C266.318 209.473 267.807 210.322 269.119 211.072C271.225 212.274 272.889 213.224 274.89 213.053C279.279 212.674 296.828 212.995 300.149 213.061L298.179 205.182C294.653 205.779 275.974 208.91 274.317 208.431C273.484 208.192 272.729 207.942 272.001 207.702C269.916 207.013 268.114 206.418 265.393 206.313C261.073 206.145 255.377 207.471 254.284 208.584C254.278 208.589 254.273 208.594 254.268 208.599C254.967 208.702 256.887 208.623 258.338 208.565C259.529 208.515 260.739 208.465 261.785 208.465Z" fill="#0E2549"/>
<path d="M332.549 165.425C332.549 165.425 327.701 180.664 321.164 185.507C314.627 190.35 279.997 199.968 279.997 199.968L278.94 214.289C278.94 214.289 311.932 215.078 318.006 212.435C325.371 209.228 344.589 199.208 350.096 181.867C355.602 164.52 332.549 165.425 332.549 165.425Z" fill="#634CFF"/>
<path d="M283.189 199.458C283.013 199.458 282.852 199.339 282.808 199.16C282.755 198.95 282.884 198.734 283.094 198.682C283.349 198.616 308.842 192.15 319.62 186.023C327.745 181.404 331.3 165.657 331.334 165.499C331.381 165.286 331.589 165.152 331.805 165.199C332.017 165.246 332.152 165.457 332.104 165.67C331.96 166.33 328.436 181.919 320.009 186.71C309.139 192.889 283.544 199.384 283.286 199.45C283.255 199.453 283.22 199.458 283.189 199.458Z" fill="#0E2549"/>
<path d="M311.661 214.031C311.466 214.031 311.298 213.887 311.269 213.689C311.24 213.474 311.39 213.274 311.608 213.245C328.71 210.925 338.431 200.41 343.572 192C349.159 182.861 350.711 174.151 350.726 174.064C350.763 173.848 350.968 173.706 351.181 173.743C351.397 173.78 351.539 173.985 351.502 174.198C351.486 174.288 349.917 183.121 344.258 192.389C340.929 197.837 336.861 202.372 332.16 205.866C326.283 210.238 319.402 212.982 311.711 214.026C311.695 214.029 311.679 214.031 311.661 214.031Z" fill="#0E2549"/>
<path d="M427.937 347H51.3417C51.1234 347 50.9473 346.824 50.9473 346.606C50.9473 346.387 51.1234 346.211 51.3417 346.211H427.937C428.155 346.211 428.331 346.387 428.331 346.606C428.331 346.824 428.155 347 427.937 347Z" fill="#0E2549"/>
</svg>
