<svg width="188" height="188" viewBox="0 0 188 188" fill="none" xmlns="http://www.w3.org/2000/svg">
<circle cx="182" cy="182" r="6" transform="rotate(-180 182 182)" fill="black"/>
<circle cx="182" cy="138" r="6" transform="rotate(-180 182 138)" fill="black"/>
<circle cx="182" cy="94" r="6" transform="rotate(-180 182 94)" fill="black"/>
<circle cx="182" cy="6" r="6" transform="rotate(-180 182 6)" fill="black"/>
<circle cx="182" cy="50" r="5.5" transform="rotate(-180 182 50)" stroke="black"/>
<circle cx="138" cy="94" r="5.5" transform="rotate(-180 138 94)" stroke="black"/>
<circle cx="138" cy="50" r="5.5" transform="rotate(-180 138 50)" stroke="black"/>
<circle cx="138" cy="138" r="5.5" transform="rotate(-180 138 138)" stroke="black"/>
<circle cx="138" cy="182" r="5.5" transform="rotate(-180 138 182)" stroke="black"/>
<circle cx="94" cy="182" r="5.5" transform="rotate(-180 94 182)" stroke="black"/>
<circle cx="94" cy="138" r="5.5" transform="rotate(-180 94 138)" stroke="black"/>
<circle cx="94" cy="94" r="5.5" transform="rotate(-180 94 94)" stroke="black"/>
<circle cx="50" cy="182" r="5.5" transform="rotate(-180 50 182)" stroke="black"/>
<circle cx="6" cy="182" r="5.5" transform="rotate(-180 6 182)" stroke="black"/>
<circle cx="50" cy="138" r="5.5" transform="rotate(-180 50 138)" stroke="black"/>
</svg>
