<svg width="21" height="14" viewBox="0 0 21 14" fill="none" xmlns="http://www.w3.org/2000/svg">
<path d="M15.669 13.2678C15.0201 13.2758 14.3755 13.1615 13.769 12.9308C13.2256 12.7194 12.7346 12.3926 12.33 11.9728C11.9314 11.5438 11.6236 11.0387 11.425 10.4878C11.2069 9.87834 11.0989 9.23499 11.106 8.58776C11.1014 7.95168 11.2125 7.32005 11.434 6.72376C11.6405 6.16773 11.9583 5.6597 12.368 5.23076C12.7788 4.80716 13.2696 4.4693 13.812 4.23676C14.3995 3.98825 15.0322 3.86463 15.67 3.87376C16.3555 3.85912 17.0343 4.01005 17.649 4.31376C18.1977 4.59518 18.6735 5.00015 19.039 5.49676C19.4077 6.00401 19.6737 6.57845 19.822 7.18776C19.9838 7.83551 20.0416 8.50488 19.993 9.17076H13.562C13.5364 9.80324 13.7532 10.4216 14.168 10.8998C14.6038 11.282 15.1736 11.4755 15.752 11.4378C16.2063 11.4484 16.6527 11.3181 17.03 11.0648C17.3295 10.8819 17.5594 10.6042 17.683 10.2758H19.838C19.5938 11.2045 19.0319 12.0183 18.25 12.5758C17.4761 13.0544 16.5786 13.2951 15.669 13.2678ZM15.6 5.72376C15.264 5.71114 14.9299 5.77975 14.626 5.92376C14.3884 6.04359 14.1775 6.21027 14.006 6.41376C13.8551 6.59864 13.7435 6.81232 13.678 7.04176C13.6203 7.23293 13.583 7.42971 13.567 7.62876H17.549C17.5203 7.1102 17.3226 6.61531 16.986 6.21976C16.6135 5.86813 16.111 5.68829 15.6 5.72376ZM5.97 13.0358H0V0.730762H5.8C6.3373 0.726058 6.8736 0.778012 7.4 0.885762C7.84587 0.972807 8.27068 1.14531 8.651 1.39376C8.99449 1.63219 9.27016 1.95576 9.451 2.33276C9.65065 2.7869 9.74632 3.27991 9.731 3.77576C9.75266 4.32436 9.60725 4.86661 9.314 5.33076C8.9931 5.77385 8.55942 6.12294 8.058 6.34176C8.73933 6.51204 9.33817 6.91847 9.748 7.48876C10.1287 8.07559 10.3213 8.7646 10.3 9.46376C10.3145 10.0229 10.1916 10.5771 9.942 11.0778C9.71169 11.5218 9.37755 11.9036 8.968 12.1908C8.54341 12.4862 8.06922 12.703 7.568 12.8308C7.04477 12.9682 6.50598 13.0374 5.965 13.0368L5.97 13.0358ZM2.71 7.55276V10.9428H5.6C5.85541 10.9455 6.11033 10.9197 6.36 10.8658C6.58857 10.8216 6.80611 10.7326 7 10.6038C7.18672 10.481 7.33834 10.3118 7.44 10.1128C7.5579 9.86312 7.61349 9.5886 7.602 9.31276C7.65047 8.80088 7.45215 8.29653 7.068 7.95476C6.65353 7.66944 6.15651 7.52884 5.654 7.55476L2.71 7.55276ZM2.71 2.82776V5.70276H5.452C5.87616 5.71946 6.29433 5.59843 6.644 5.35776C6.97362 5.08402 7.14719 4.66543 7.108 4.23876C7.11645 3.99384 7.06423 3.75063 6.956 3.53076C6.85824 3.35302 6.71413 3.20511 6.539 3.10276C6.35458 2.9934 6.15091 2.92041 5.939 2.88776C5.70824 2.8445 5.47377 2.82407 5.239 2.82676L2.71 2.82776ZM18.051 2.77176H13.061V1.55676H18.051V2.77076V2.77176Z" fill="#1C1C1C"/>
</svg>
